<?xml version="1.0" standalone="no"?><!DOCTYPE svg PUBLIC "-//W3C//DTD SVG 1.1//EN" "http://www.w3.org/Graphics/SVG/1.1/DTD/svg11.dtd"><svg t="1750321899267" class="icon" viewBox="0 0 1024 1024" version="1.1" xmlns="http://www.w3.org/2000/svg" p-id="10976" xmlns:xlink="http://www.w3.org/1999/xlink" width="200" height="200"><path d="M512 512m-512 0a512 512 0 1 0 1024 0 512 512 0 1 0-1024 0Z" fill="#F7D86F" p-id="10977"></path><path d="M525.792653 305.737143a24.555102 24.555102 0 0 1-23.614694-17.763265 131.448163 131.448163 0 0 1 252.447347-73.142858 24.555102 24.555102 0 0 1-47.124898 13.688164 82.12898 82.12898 0 1 0-157.779592 45.87102 24.450612 24.450612 0 0 1-16.822857 30.302041 27.062857 27.062857 0 0 1-7.105306 1.044898zM147.539592 408.973061a24.659592 24.659592 0 0 1-23.510204-17.763265 131.448163 131.448163 0 1 1 252.447347-73.142857A24.555102 24.555102 0 1 1 330.083265 334.367347a22.674286 22.674286 0 0 1-0.731428-2.507755 82.337959 82.337959 0 0 0-158.197551 45.76653 24.555102 24.555102 0 0 1-16.718368 29.884082 25.70449 25.70449 0 0 1-6.896326 1.462857zM449.306122 610.115918a259.448163 259.448163 0 0 1-166.034285-59.454694 24.555102 24.555102 0 0 1 31.346939-37.720816A210.442449 210.442449 0 0 0 449.306122 561.005714a203.232653 203.232653 0 0 0 198.530613-147.121632 24.555102 24.555102 0 1 1 47.438367 12.747755A252.447347 252.447347 0 0 1 449.306122 610.115918z" fill="#0E2236" p-id="10978"></path></svg>